<svg width="578" height="578" viewBox="0 0 578 578" fill="none" xmlns="http://www.w3.org/2000/svg">
<path d="M450.401 506.756C491.919 506.756 525.575 485.965 525.575 460.319C525.575 434.673 491.919 413.883 450.401 413.883C408.883 413.883 375.226 434.673 375.226 460.319C375.226 485.965 408.883 506.756 450.401 506.756Z" fill="#E0E0E0"/>
<path d="M271.949 376.995L223.778 349.193C222.979 348.783 222.093 348.569 221.195 348.569C220.296 348.569 219.411 348.783 218.611 349.193L58.956 441.384C58.6431 441.488 58.371 441.689 58.1782 441.956C57.9855 442.224 57.8817 442.545 57.8817 442.875C57.8817 443.205 57.9855 443.526 58.1782 443.794C58.371 444.062 58.6431 444.262 58.956 444.366L107.115 472.18C107.917 472.581 108.802 472.789 109.699 472.789C110.595 472.789 111.48 472.581 112.282 472.18L126.513 463.961L257.707 388.416L271.961 380.035C272.283 379.931 272.564 379.727 272.762 379.453C272.961 379.179 273.068 378.849 273.066 378.511C273.065 378.172 272.956 377.843 272.755 377.57C272.554 377.298 272.272 377.096 271.949 376.995Z" fill="#E0E0E0"/>
<path d="M488.491 443.049L481.046 439.095C481.046 439.095 481.775 402.75 489.312 374.602C497.034 345.783 519.506 313.946 540.742 325.876C561.978 337.806 524.235 362.325 512.883 385.988C501.531 409.652 488.491 443.049 488.491 443.049Z" fill="#3A4BE6"/>
<path opacity="0.15" d="M488.491 443.049L481.046 439.095C481.046 439.095 481.775 402.75 489.312 374.602C497.034 345.783 519.506 313.946 540.742 325.876C561.978 337.806 524.235 362.325 512.883 385.988C501.531 409.652 488.491 443.049 488.491 443.049Z" fill="black"/>
<path d="M487.508 434.425C487.41 434.422 487.313 434.399 487.223 434.359C487.133 434.318 487.051 434.26 486.984 434.188C486.916 434.117 486.863 434.032 486.828 433.94C486.793 433.847 486.777 433.749 486.78 433.65C488.375 377.249 513.033 342.812 533.668 330.466C533.839 330.363 534.045 330.333 534.239 330.382C534.433 330.43 534.599 330.554 534.702 330.726C534.805 330.898 534.835 331.103 534.786 331.297C534.738 331.491 534.614 331.658 534.442 331.76C514.131 343.91 489.867 377.896 488.283 433.685C488.281 433.785 488.26 433.883 488.22 433.974C488.18 434.066 488.123 434.148 488.051 434.217C487.979 434.286 487.893 434.34 487.8 434.375C487.707 434.411 487.608 434.428 487.508 434.425Z" fill="white"/>
<path d="M491.855 444.783L485.208 441.372C485.208 441.372 486.029 423.524 499.704 400.265C511.842 379.607 536.442 363.423 546.777 369.192C554.799 373.654 556.649 383.434 548.961 389.942C541.274 396.45 505.785 410.103 491.855 444.783Z" fill="#3A4BE6"/>
<path d="M489.185 439.083C490.341 439.315 490.745 436.459 490.976 435.731C491.416 434.367 491.878 433.026 492.387 431.685C493.382 429.077 494.513 426.523 495.774 424.032C498.202 419.242 501.045 414.674 504.27 410.38C507.285 406.36 510.572 402.552 514.108 398.982C517.299 395.771 520.656 392.731 524.165 389.873C527.101 387.468 530.153 385.191 533.286 383.052C535.598 381.48 537.91 379.977 540.326 378.567C541.586 377.827 542.846 377.099 544.152 376.428L544.522 376.243C544.729 376.142 544.887 375.963 544.962 375.745C545.037 375.527 545.022 375.289 544.921 375.082C544.82 374.875 544.641 374.716 544.423 374.642C544.205 374.567 543.966 374.582 543.759 374.683C542.95 375.076 542.176 375.515 541.447 375.954C539.413 377.11 537.424 378.266 535.471 379.561C532.573 381.434 529.745 383.414 526.986 385.503C523.564 388.092 520.277 390.84 517.125 393.745C513.532 397.036 510.15 400.549 506.998 404.265C503.582 408.271 500.49 412.542 497.75 417.039C494.837 421.797 492.397 426.831 490.468 432.067C490.105 433.076 489.759 434.082 489.427 435.084C488.941 436.084 488.647 437.166 488.56 438.274C488.575 438.45 488.637 438.619 488.741 438.762C488.845 438.905 488.987 439.016 489.15 439.083H489.185Z" fill="white"/>
<path d="M111.947 411.351C111.947 411.351 112.132 388.682 103.219 369.92C94.3065 351.158 80.3651 338.465 66.2272 335.564C52.0894 332.662 39.0497 344.338 53.1529 355.216C67.2561 366.094 93.162 378.682 101.439 413.917L111.947 411.351Z" fill="#3A4BE6"/>
<path opacity="0.15" d="M111.947 411.351C111.947 411.351 112.132 388.682 103.219 369.92C94.3065 351.158 80.3651 338.465 66.2272 335.564C52.0894 332.662 39.0497 344.338 53.1529 355.216C67.2561 366.094 93.162 378.682 101.439 413.917L111.947 411.351Z" fill="black"/>
<path d="M106.051 407.432C105.904 407.432 105.762 407.376 105.654 407.275C105.547 407.174 105.482 407.036 105.473 406.889C103.3 370.602 73.4059 347.008 58.6323 342.985C58.4856 342.945 58.3608 342.848 58.285 342.716C58.2093 342.584 58.1887 342.427 58.2277 342.28C58.2683 342.13 58.3664 342.003 58.5006 341.925C58.6347 341.847 58.7942 341.825 58.9444 341.864C73.9724 345.968 104.421 369.955 106.629 406.819C106.633 406.971 106.579 407.119 106.478 407.233C106.377 407.346 106.237 407.418 106.086 407.432H106.051Z" fill="white"/>
<path d="M113.773 442.471C116.637 438.857 118.559 434.589 119.366 430.049C120.173 425.509 119.84 420.84 118.397 416.461C117.558 413.816 116.216 411.359 114.444 409.224C113.022 407.548 110.976 406.681 109.311 405.282C105.728 402.311 101.566 399.155 100.271 394.439C99.231 390.682 99.4506 387.121 97.3698 383.595C96.1438 381.388 94.1914 379.672 91.8441 378.74C88.7807 377.584 85.4052 378.347 82.1684 378.74C77.5444 379.26 74.0764 377.665 70.0767 375.538C65.6723 373.226 60.5281 371.4 55.7538 372.822C54.2011 373.282 52.7624 374.063 51.5309 375.114C50.2994 376.166 49.3025 377.465 48.605 378.926C47.9075 380.388 47.5249 381.98 47.4819 383.598C47.4389 385.217 47.7365 386.827 48.3554 388.324C49.4189 390.913 51.3841 393.017 52.8291 395.421C54.2741 397.826 55.0371 400.577 53.9851 403.201C53.1759 405.143 51.6731 406.669 51.072 408.646C49.3611 413.848 50.3206 418.472 55.4879 421.154C60.8865 423.917 69.3599 421.836 72.065 428.622C73.0823 431.2 73.1169 434.055 73.6718 436.771C74.8108 442.239 77.9895 447.067 82.5615 450.274C88.7692 454.585 97.1964 453.534 103.635 450.528C107.591 448.66 111.061 445.903 113.773 442.471Z" fill="#3A4BE6"/>
<path d="M65.1059 409.64C65.2322 409.662 65.3621 409.641 65.4758 409.582C70.0289 407.822 74.9152 407.092 79.7839 407.444C84.6527 407.795 89.3832 409.221 93.636 411.617C93.7817 411.695 93.9523 411.712 94.1105 411.664C94.2687 411.616 94.4015 411.508 94.4799 411.363C94.5205 411.292 94.5464 411.213 94.5561 411.132C94.5659 411.05 94.5592 410.968 94.5366 410.889C94.514 410.811 94.4758 410.737 94.4244 410.674C94.3729 410.61 94.3093 410.557 94.2371 410.519C89.8187 408.037 84.9053 406.566 79.8503 406.21C74.7953 405.854 69.7243 406.623 65.0019 408.461C64.8908 408.522 64.8009 408.615 64.7441 408.728C64.6873 408.842 64.6663 408.969 64.6839 409.095C64.7014 409.22 64.7567 409.337 64.8424 409.431C64.9281 409.524 65.0402 409.589 65.1637 409.617L65.1059 409.64Z" fill="white"/>
<path d="M105.473 442.667C105.322 442.67 105.175 442.614 105.065 442.51C104.955 442.406 104.89 442.263 104.884 442.112C103.809 415.987 77.5791 388.358 59.9963 380.844C59.9253 380.815 59.8608 380.772 59.8066 380.718C59.7523 380.664 59.7094 380.599 59.6804 380.528C59.6513 380.457 59.6367 380.381 59.6374 380.304C59.638 380.228 59.6539 380.152 59.6842 380.081C59.7475 379.939 59.8645 379.828 60.0095 379.771C60.1546 379.715 60.3161 379.718 60.4587 379.781C78.3189 387.433 104.953 415.524 106.051 442.089C106.054 442.167 106.042 442.244 106.015 442.317C105.989 442.389 105.948 442.456 105.895 442.513C105.843 442.57 105.779 442.616 105.709 442.648C105.638 442.681 105.562 442.699 105.485 442.702L105.473 442.667Z" fill="white"/>
<path d="M250.251 69.36L119.415 144.87C118.119 145.716 117.042 146.856 116.273 148.199C115.503 149.541 115.063 151.047 114.987 152.592V460.701C114.987 463.521 116.976 464.666 119.415 463.244L250.251 387.711C251.538 386.867 252.609 385.733 253.378 384.4C254.147 383.066 254.592 381.572 254.678 380.035V71.88C254.678 69.0594 252.69 67.9034 250.251 69.36ZM248.309 357.204C248.309 359.62 246.609 361.157 244.517 362.36L124.709 431.558C122.628 432.714 120.918 431.789 120.918 429.361V173.134C120.918 171.809 121.268 170.508 121.931 169.361C122.595 168.215 123.549 167.263 124.698 166.603L244.506 97.393C244.89 97.1696 245.326 97.0515 245.771 97.0504C246.216 97.0494 246.653 97.1654 247.038 97.3869C247.424 97.6083 247.744 97.9274 247.967 98.312C248.19 98.6966 248.308 99.1332 248.309 99.5778V357.204Z" fill="#455A64"/>
<path d="M248.309 357.204C248.309 359.62 246.609 361.157 244.517 362.36L124.709 431.558C122.628 432.714 120.917 431.789 120.917 429.361V173.134C120.918 171.809 121.268 170.508 121.931 169.361C122.595 168.215 123.549 167.263 124.698 166.603L244.505 97.3929C244.89 97.1696 245.326 97.0515 245.771 97.0504C246.216 97.0494 246.653 97.1654 247.038 97.3869C247.424 97.6083 247.744 97.9274 247.967 98.312C248.19 98.6966 248.308 99.1332 248.309 99.5778V357.204Z" fill="#263238"/>
<path d="M124.709 431.558L244.517 362.383C245.358 361.928 246.135 361.365 246.829 360.707L120.917 289.798V429.361C120.917 431.789 122.628 432.76 124.709 431.558Z" fill="#37474F"/>
<path d="M238.61 352.707V100.803L124.698 166.603C123.549 167.263 122.595 168.215 121.931 169.361C121.268 170.508 120.918 171.809 120.917 173.134V423.628L234.818 357.863C236.911 356.661 238.61 355.123 238.61 352.707Z" fill="#3A4BE6"/>
<path d="M118.86 463.556C117.539 464.113 116.112 464.377 114.679 464.329C113.246 464.281 111.841 463.923 110.56 463.279L105.496 460.354C104.204 459.517 103.129 458.387 102.357 457.055C101.586 455.722 101.14 454.227 101.057 452.69V144.5C101.087 143.358 101.346 142.233 101.82 141.194C101.982 140.835 102.156 140.489 102.352 140.13L116.224 148.222C115.933 148.743 115.678 149.284 115.461 149.841C115.124 150.716 114.941 151.643 114.918 152.58V460.701C114.987 463.302 116.675 464.481 118.86 463.556Z" fill="#263238"/>
<path d="M188.74 401.479C191.572 401.479 191.873 404.658 191.873 406.022C191.704 408.755 190.902 411.412 189.532 413.783C188.162 416.154 186.261 418.174 183.977 419.686C183.061 420.268 182.01 420.602 180.925 420.657C178.093 420.657 177.793 417.478 177.793 416.114C177.963 413.381 178.764 410.724 180.131 408.352C181.499 405.979 183.397 403.955 185.677 402.438C186.601 401.865 187.654 401.535 188.74 401.479Z" fill="#3A4BE6"/>
<path d="M184.74 112.028C185.896 111.334 186.902 111.889 186.902 113.276C186.86 114.026 186.642 114.756 186.267 115.407C185.892 116.057 185.369 116.61 184.74 117.022C183.584 117.704 182.567 117.149 182.567 115.773C182.606 115.022 182.824 114.29 183.202 113.639C183.58 112.988 184.107 112.435 184.74 112.028Z" fill="#263238"/>
<path d="M170.776 130.281C171.839 129.669 172.695 130.166 172.695 131.437C172.659 132.102 172.467 132.75 172.134 133.326C171.8 133.903 171.335 134.393 170.776 134.755C169.712 135.368 168.857 134.87 168.857 133.599C168.894 132.934 169.087 132.287 169.42 131.711C169.754 131.135 170.218 130.645 170.776 130.281Z" fill="#263238"/>
<path d="M177.191 126.489L198.682 114.086C199.838 113.404 200.809 113.889 200.809 115.161C200.752 115.875 200.531 116.566 200.162 117.18C199.793 117.794 199.286 118.313 198.682 118.698L177.191 131.102C176.035 131.784 175.064 131.298 175.064 130.027C175.121 129.313 175.342 128.622 175.711 128.008C176.08 127.394 176.587 126.874 177.191 126.489Z" fill="#263238"/>
<path d="M254.632 71.1749C254.308 68.8629 252.47 68.0421 250.262 69.3253L119.403 144.87C118.094 145.683 117.018 146.822 116.282 148.176L102.41 140.084C103.158 138.741 104.236 137.611 105.543 136.801L236.321 61.268C237.693 60.5723 239.21 60.2098 240.748 60.2098C242.287 60.2098 243.804 60.5723 245.176 61.268L250.262 64.1811C251.448 64.9674 252.451 65.9984 253.205 67.2048C253.958 68.4111 254.445 69.7648 254.632 71.1749Z" fill="#37474F"/>
<path d="M220.31 80.5261C219.631 80.8888 218.876 81.0853 218.106 81.0993C217.337 81.1134 216.574 80.9447 215.883 80.6071C215.651 80.5082 215.45 80.3486 215.302 80.1452C215.153 79.9417 215.062 79.7019 215.039 79.4511C215.039 79.1274 215.039 77.9251 215.039 77.5899C215.076 77.3014 215.187 77.0274 215.361 76.7945C215.535 76.5616 215.767 76.3776 216.033 76.2605L230.055 68.1685C230.737 67.8084 231.494 67.6134 232.265 67.5994C233.036 67.5853 233.8 67.7526 234.494 68.0876C234.722 68.191 234.918 68.3521 235.064 68.5549C235.21 68.7576 235.301 68.9951 235.327 69.2436C235.327 69.5788 235.327 70.8273 235.327 71.151C235.29 71.4411 235.18 71.717 235.006 71.9519C234.831 72.1868 234.6 72.3728 234.332 72.4919L220.31 80.5261Z" fill="#3A4BE6"/>
<path opacity="0.25" d="M220.31 80.5261C219.631 80.8888 218.876 81.0853 218.106 81.0993C217.337 81.1134 216.574 80.9447 215.883 80.6071C215.651 80.5082 215.45 80.3486 215.302 80.1452C215.153 79.9417 215.062 79.7019 215.039 79.4511C215.039 79.1274 215.039 77.9251 215.039 77.5899C215.076 77.3014 215.187 77.0274 215.361 76.7945C215.535 76.5616 215.767 76.3776 216.033 76.2605L230.055 68.1685C230.737 67.8084 231.494 67.6134 232.265 67.5994C233.036 67.5853 233.8 67.7526 234.494 68.0876C234.722 68.191 234.918 68.3521 235.064 68.5549C235.21 68.7576 235.301 68.9951 235.327 69.2436C235.327 69.5788 235.327 70.8273 235.327 71.151C235.29 71.4411 235.18 71.717 235.006 71.9519C234.831 72.1868 234.6 72.3728 234.332 72.4919L220.31 80.5261Z" fill="black"/>
<path d="M220.31 78.6889L234.333 70.5969C235.604 69.857 235.662 68.7126 234.483 68.0306C233.788 67.6955 233.025 67.5283 232.254 67.5424C231.483 67.5564 230.726 67.7514 230.044 68.1115L216.022 76.2035C214.761 76.9318 214.692 78.0762 215.883 78.7582C216.574 79.0949 217.336 79.2641 218.105 79.252C218.874 79.24 219.63 79.0471 220.31 78.6889Z" fill="#3A4BE6"/>
<path opacity="0.3" d="M220.31 78.6889L234.333 70.5969C235.604 69.857 235.662 68.7126 234.483 68.0306C233.788 67.6955 233.025 67.5283 232.254 67.5424C231.483 67.5564 230.726 67.7514 230.044 68.1115L216.022 76.2035C214.761 76.9318 214.692 78.0762 215.883 78.7582C216.574 79.0949 217.336 79.2641 218.105 79.252C218.874 79.24 219.63 79.0471 220.31 78.6889Z" fill="black"/>
<path d="M109.82 190.937C109.792 190.167 109.583 189.415 109.21 188.742C108.836 188.069 108.308 187.494 107.67 187.064C107.46 186.909 107.213 186.816 106.953 186.793C106.694 186.771 106.434 186.821 106.201 186.937C105.936 187.099 104.872 187.688 104.595 187.862C104.362 188.037 104.18 188.27 104.064 188.538C103.949 188.805 103.905 189.098 103.936 189.387V223.744C103.964 224.512 104.172 225.262 104.543 225.935C104.915 226.608 105.439 227.184 106.074 227.616C106.283 227.757 106.525 227.841 106.776 227.862C107.027 227.882 107.279 227.837 107.508 227.732C107.808 227.582 108.883 226.957 109.172 226.784C109.405 226.608 109.587 226.375 109.703 226.108C109.818 225.84 109.862 225.548 109.831 225.258L109.82 190.937Z" fill="#3A4BE6"/>
<path opacity="0.3" d="M109.82 190.937C109.792 190.167 109.583 189.415 109.21 188.742C108.836 188.069 108.308 187.494 107.67 187.064C107.46 186.909 107.213 186.816 106.953 186.793C106.694 186.771 106.434 186.821 106.201 186.937C105.936 187.099 104.872 187.688 104.595 187.862C104.362 188.037 104.18 188.27 104.064 188.538C103.949 188.805 103.905 189.098 103.936 189.387V223.744C103.964 224.512 104.172 225.262 104.543 225.935C104.915 226.608 105.439 227.184 106.074 227.616C106.283 227.757 106.525 227.841 106.776 227.862C107.027 227.882 107.279 227.837 107.508 227.732C107.808 227.582 108.883 226.957 109.172 226.784C109.405 226.608 109.587 226.375 109.703 226.108C109.818 225.84 109.862 225.548 109.831 225.258L109.82 190.937Z" fill="black"/>
<path d="M108.225 191.896V226.252C108.225 227.709 107.265 228.333 106.074 227.651C105.439 227.218 104.915 226.642 104.543 225.97C104.172 225.297 103.964 224.546 103.936 223.778V189.387C103.936 187.919 104.895 187.295 106.074 187.977C106.718 188.413 107.248 188.996 107.622 189.677C107.996 190.359 108.203 191.119 108.225 191.896Z" fill="#3A4BE6"/>
<path opacity="0.4" d="M108.225 191.896V226.252C108.225 227.709 107.265 228.333 106.074 227.651C105.439 227.218 104.915 226.642 104.543 225.97C104.172 225.297 103.964 224.546 103.936 223.778V189.387C103.936 187.919 104.895 187.295 106.074 187.977C106.718 188.413 107.248 188.996 107.622 189.677C107.996 190.359 108.203 191.119 108.225 191.896Z" fill="black"/>
<path d="M109.82 236.98C109.792 236.211 109.583 235.459 109.21 234.786C108.836 234.113 108.308 233.537 107.67 233.107C107.46 232.953 107.213 232.859 106.953 232.837C106.694 232.814 106.434 232.864 106.201 232.98C105.936 233.142 104.872 233.732 104.595 233.905C104.362 234.081 104.18 234.314 104.064 234.581C103.949 234.849 103.905 235.141 103.936 235.431V251.615C103.965 252.381 104.174 253.129 104.546 253.8C104.917 254.47 105.441 255.044 106.074 255.476C106.276 255.625 106.515 255.718 106.765 255.745C107.015 255.771 107.267 255.73 107.496 255.626C107.797 255.476 108.872 254.852 109.161 254.678C109.392 254.504 109.574 254.273 109.69 254.008C109.805 253.743 109.85 253.452 109.82 253.164V236.98Z" fill="#3A4BE6"/>
<path opacity="0.3" d="M109.82 236.98C109.792 236.211 109.583 235.459 109.21 234.786C108.836 234.113 108.308 233.537 107.67 233.107C107.46 232.953 107.213 232.859 106.953 232.837C106.694 232.814 106.434 232.864 106.201 232.98C105.936 233.142 104.872 233.732 104.595 233.905C104.362 234.081 104.18 234.314 104.064 234.581C103.949 234.849 103.905 235.141 103.936 235.431V251.615C103.965 252.381 104.174 253.129 104.546 253.8C104.917 254.47 105.441 255.044 106.074 255.476C106.276 255.625 106.515 255.718 106.765 255.745C107.015 255.771 107.267 255.73 107.496 255.626C107.797 255.476 108.872 254.852 109.161 254.678C109.392 254.504 109.574 254.273 109.69 254.008C109.805 253.743 109.85 253.452 109.82 253.164V236.98Z" fill="black"/>
<path d="M108.225 237.847V254.031C108.225 255.488 107.265 256.123 106.074 255.43C105.439 254.997 104.915 254.421 104.543 253.748C104.172 253.076 103.964 252.325 103.936 251.557V235.373C103.936 233.917 104.895 233.281 106.074 233.963C106.712 234.397 107.239 234.974 107.612 235.649C107.985 236.324 108.195 237.076 108.225 237.847Z" fill="#3A4BE6"/>
<path opacity="0.4" d="M108.225 237.847V254.031C108.225 255.488 107.265 256.123 106.074 255.43C105.439 254.997 104.915 254.421 104.543 253.748C104.172 253.076 103.964 252.325 103.936 251.557V235.373C103.936 233.917 104.895 233.281 106.074 233.963C106.712 234.397 107.239 234.974 107.612 235.649C107.985 236.324 108.195 237.076 108.225 237.847Z" fill="black"/>
<path d="M148.13 208.3C148.245 208.861 148.399 209.413 148.592 209.953C149.344 211.987 150.696 213.906 150.581 216.08C150.453 218.53 148.523 220.426 147.043 222.38C145.12 224.963 143.839 227.966 143.304 231.141C142.769 234.317 142.997 237.574 143.968 240.645C145.39 244.384 147.361 247.891 149.818 251.049L155.401 258.967C157.089 261.184 159.244 263.004 161.713 264.296C166.511 267.008 171.864 268.589 177.365 268.92C186.408 269.531 195.402 267.172 202.982 262.204C211.016 256.886 207.479 243.246 215.698 238.263C225.64 232.252 230.379 211.375 218.195 202.658C218.195 202.658 220.16 189.873 216.554 186.613C212.959 183.605 208.511 181.802 203.838 181.457C197.387 180.787 190.925 182.047 184.486 182.024C177.858 182.002 171.235 182.416 164.661 183.261C162.349 183.573 159.089 184.417 157.84 186.671C157.488 187.555 157.392 188.521 157.563 189.457C157.545 190.942 157.014 192.376 156.06 193.514C154.627 195.248 152.592 196.416 151.066 198.046C149.807 199.405 148.885 201.041 148.375 202.823C147.865 204.604 147.781 206.48 148.13 208.3Z" fill="#263238"/>
<path d="M212.288 226.749C222.692 227.038 224.044 229.258 233.362 238.483C241.107 246.147 266.77 269.834 266.77 269.834L297.52 278.018L290.26 296.78C290.26 296.78 283.324 296.491 269.452 296.479C260.932 296.479 257.973 294.572 249.395 288.85C245.026 285.925 220.368 269.787 220.368 269.787L212.288 226.749Z" fill="#E6E6E6"/>
<path d="M331.541 240.078L275.186 259.938L259.649 326.986L260.909 328.327L314.49 308.34L332.789 241.419L331.541 240.078Z" fill="#3A4BE6"/>
<path opacity="0.35" d="M276.434 261.279L260.909 328.327L259.649 326.986L275.186 259.938L276.434 261.279Z" fill="black"/>
<path opacity="0.25" d="M332.789 241.419L276.434 261.279L260.909 328.327L314.49 308.34L332.789 241.419Z" fill="black"/>
<g opacity="0.2">
<path opacity="0.2" d="M306.109 294.699C306.629 296.017 310.952 298.918 317.206 298.398L318.258 294.537L306.109 294.699Z" fill="black"/>
</g>
<g opacity="0.1">
<path opacity="0.1" d="M315.819 255.152L316.282 252.898C316.536 251.661 313.23 252.309 308.895 254.355L298.722 257.43C294.387 259.476 290.295 261.002 290.029 262.239L289.566 264.481L315.819 255.152Z" fill="black"/>
</g>
<path d="M319.172 244.98C319.333 244.205 318.016 244.367 316.247 244.841L312.999 245.939C312.999 245.939 314.328 242.679 306.641 244.783C298.19 247.095 298.005 251.291 298.005 251.291C296.683 251.865 295.328 252.359 293.948 252.771C291.139 253.684 290.838 254.228 290.607 255.014L290.191 256.435L318.917 246.332C318.917 246.332 319.056 245.754 319.172 244.98Z" fill="#37474F"/>
<path d="M316.143 249.291C313.484 250.447 312.386 251.083 311.981 253.002C311.53 255.187 311.438 256.1 311.438 256.1L296.479 261.996C296.479 261.996 297.288 258.771 297.485 257.696C297.681 256.62 295.705 256.62 293.115 257.811L293.728 255.129L316.998 246.494L316.143 249.291Z" fill="#37474F"/>
<path d="M316.582 255.187C316.582 255.187 316.802 254.181 317.056 252.933C317.31 251.684 314.004 252.343 309.669 254.389L299.496 257.464C295.161 259.51 291.058 261.036 290.803 262.273L290.341 264.585L316.582 255.187Z" fill="#37474F"/>
<path d="M326.524 264.354C326.524 264.354 324.524 271.706 323.992 273.602C323.46 275.498 314.235 279.717 309.623 280.295C300.791 281.394 299.785 283.301 301.901 289.543C303.866 295.323 309.611 297.52 317.588 296.583C321.333 296.144 326.5 292.826 328.535 287.035C331.124 279.636 329.691 271.741 330.766 267.383C331.841 263.025 328.766 261.776 326.524 264.354Z" fill="#AF4103"/>
<path d="M239.2 365.458L233.223 368.926L230.714 370.371L197.838 389.341L193.353 391.884L185.781 396.254L188.093 372.66L192.509 326.975V326.501L192.717 324.455L198.497 264.724L201.028 238.587L201.919 229.212L202.219 226.183H202.381C205.058 225.438 207.888 225.438 210.565 226.183C211.162 226.364 211.742 226.596 212.299 226.877C215.767 228.599 218.079 231.951 219.998 235.477C220.47 236.336 220.895 237.22 221.27 238.124C222.695 241.551 223.794 245.104 224.553 248.737C226.067 255.441 228.021 262.296 228.796 273.105C228.917 275.887 228.77 278.674 228.356 281.428C227.835 288.715 227.747 296.026 228.09 303.323C229.061 319.854 233.223 327.345 239.2 365.458Z" fill="#E0E0E0"/>
<path d="M230.714 370.348L197.838 389.318L193.352 391.884L185.781 396.254L180.567 399.259L148.916 417.524C149.251 404.808 149.401 391.017 149.101 377.989C149.008 373.631 148.974 369.18 149.159 364.625C149.76 348.811 152.765 331.853 163.539 314.004L164.036 313.103C165.308 320.651 176.868 325.553 187.272 326.709L188.428 326.813C189.734 326.94 191.087 326.998 192.485 326.998H193.364C202.161 326.917 212.577 324.847 224.576 320.79C225.732 327.495 226.888 336.292 228.125 346.58C228.68 351.204 229.242 356.133 229.813 361.366C230.044 364.29 230.402 367.284 230.714 370.348Z" fill="#AF4103"/>
<path d="M233.223 368.903L230.714 370.348L197.838 389.318L193.352 391.884L185.781 396.254L180.567 399.259L148.916 417.524L145.448 419.524C145.621 405.837 145.737 392.427 145.725 384.012C145.725 376.186 145.899 369.226 146.326 363.053C147.17 350.869 148.927 341.702 151.864 334.766C155.309 327.175 159.384 319.886 164.048 312.975C164.048 312.975 166.938 322.732 188.555 324.27H188.694C189.965 324.362 191.306 324.42 192.717 324.443H194.358C221.27 324.443 224.241 317.657 224.241 317.657C226.87 327.635 228.95 337.75 230.472 347.956C231.042 351.563 231.593 355.416 232.125 359.516C232.518 362.522 232.888 365.643 233.223 368.903Z" fill="#3A4BE6"/>
<path opacity="0.4" d="M233.223 368.903L230.714 370.348L197.838 389.318L193.352 391.884L185.781 396.254L180.567 399.259L148.916 417.524L145.448 419.524C145.621 405.837 145.737 392.427 145.725 384.012C145.725 376.186 145.899 369.226 146.326 363.053C147.17 350.869 148.927 341.702 151.864 334.766C155.309 327.175 159.384 319.886 164.048 312.975C164.048 312.975 166.938 322.732 188.555 324.27H188.694C189.965 324.362 191.306 324.42 192.717 324.443H194.358C221.27 324.443 224.241 317.657 224.241 317.657C226.87 327.635 228.95 337.75 230.472 347.956C231.042 351.563 231.593 355.416 232.125 359.516C232.518 362.522 232.888 365.643 233.223 368.903Z" fill="black"/>
<path opacity="0.2" d="M217.79 353.563C217.79 353.563 214.785 363.111 202.138 368.463L201.537 371.388L197.838 389.318L193.353 391.884L196.034 372.105L197.19 363.504C205.006 362.693 212.293 359.177 217.79 353.563Z" fill="black"/>
<path d="M179.33 228.946L166.614 230.287C158.199 232.344 154.395 236.067 153.528 243.5C153.124 246.968 151.031 256.216 153.968 267.776C156.626 278.272 163.724 303.959 163.724 303.959C163.724 303.959 147.39 325.275 144.431 361.828C174.325 381.341 220.183 370.856 232.587 359.065C231.547 347.898 224.414 317.253 223.524 307.299C223.524 307.299 224.183 291.751 225.42 285.012C234.876 274.689 233.674 264.816 229.431 256.852C221.594 242.147 209.779 229.223 205.953 229.235L179.33 228.946Z" fill="#3A4BE6"/>
<path opacity="0.7" d="M179.33 228.946L166.614 230.287C158.199 232.344 154.395 236.067 153.528 243.5C153.124 246.968 151.031 256.216 153.968 267.776C156.626 278.272 163.724 303.959 163.724 303.959C163.724 303.959 147.39 325.275 144.431 361.828C174.325 381.341 220.183 370.856 232.587 359.065C231.547 347.898 224.414 317.253 223.524 307.299C223.524 307.299 224.183 291.751 225.42 285.012C234.876 274.689 233.674 264.816 229.431 256.852C221.594 242.147 209.779 229.223 205.953 229.235L179.33 228.946Z" fill="white"/>
<path d="M190.347 308.536C190.347 308.768 190.347 308.976 190.347 309.149V309.45C190.354 309.546 190.354 309.642 190.347 309.739C189.908 314.363 189.387 319.276 188.833 324.281C188.833 324.281 188.833 324.281 188.833 324.35C188.752 325.16 188.659 325.969 188.567 326.79C186.867 341.875 184.844 358.002 183.284 372.683C182.902 376.243 182.555 379.711 182.243 383.087C181.758 388.139 181.238 393.676 180.706 399.271L149.055 417.536L145.587 419.536L136.743 424.633C138.523 407.12 142.673 366.544 144.985 348.233C145.251 346.164 145.598 344.095 145.991 342.037L146.303 340.534L146.442 339.922C146.592 339.228 146.743 338.558 146.904 337.876C147.066 337.194 147.217 336.616 147.367 336.003C147.725 334.604 148.107 333.229 148.523 331.888C148.719 331.24 148.904 330.593 149.112 329.957C149.32 329.321 149.494 328.686 149.702 328.061C150.118 326.813 150.523 325.587 150.95 324.397C150.945 324.374 150.945 324.35 150.95 324.327C151.147 323.761 151.355 323.171 151.563 322.64C151.841 321.854 152.13 321.091 152.419 320.328L152.765 319.414C152.939 318.998 153.089 318.594 153.251 318.189C153.817 316.767 154.407 315.415 154.927 314.155C155.043 313.877 155.17 313.6 155.285 313.334C155.401 313.068 155.586 312.675 155.725 312.351C156.071 311.542 156.418 310.791 156.754 310.039C156.892 309.716 157.043 309.403 157.181 309.103C157.32 308.802 157.516 308.409 157.667 308.086L157.886 307.623L158.118 307.172C158.133 307.113 158.16 307.058 158.199 307.01C158.23 306.926 158.269 306.845 158.314 306.768C158.342 306.716 158.365 306.662 158.383 306.606C158.48 306.442 158.565 306.272 158.638 306.097L159.412 304.594C159.412 304.514 159.493 304.456 159.516 304.386L159.817 303.831L150.199 263.95L145.413 244.136V243.812C145.633 242.055 147.101 233.766 155.563 231.246C160.34 230.013 165.234 229.285 170.163 229.073C172.059 228.957 173.77 228.911 175.169 228.876H177.377H178.706C178.709 228.903 178.709 228.93 178.706 228.957C178.775 229.131 178.972 229.651 179.272 230.46C179.305 230.596 179.351 230.727 179.411 230.853C179.412 230.872 179.412 230.892 179.411 230.911C181.492 236.622 187.33 253.245 190.231 267.683C190.74 270.18 191.156 272.62 191.457 274.931C192.324 282.157 191.688 294.248 190.347 308.536Z" fill="#FAFAFA"/>
<path d="M160.129 284.734C160.129 284.734 161.285 279.035 162.984 266.724C164.961 252.528 164.256 245.511 162.117 241.026L150.06 264.019L159.678 303.901C159.678 303.901 149.794 322.004 145.806 342.049C155.262 315.334 165.608 307.369 165.608 307.369L160.129 284.734Z" fill="#E6E6E6"/>
<path d="M202.369 220.045C206.115 220.045 206.554 220.669 209.779 224.992C211.698 227.57 223.848 247.627 223.848 247.627C223.848 247.627 214.184 234.911 206.889 231.05C205.485 230.227 203.965 229.619 202.381 229.246L202.369 220.045Z" fill="#EBEBEB"/>
<path d="M174.672 262.666C174.672 261.51 174.556 259.013 174.359 255.869C173.4 240.448 172.938 226.576 178.14 225.42L178.59 227.547C174.799 228.368 176.047 248.216 176.521 255.684C176.729 258.898 176.891 261.464 176.833 262.713L174.672 262.666Z" fill="#3A4BE6"/>
<path d="M157.332 161.701L165.424 168.325C165.863 167.822 166.196 167.234 166.401 166.597C166.605 165.961 166.678 165.289 166.614 164.623C166.55 163.958 166.351 163.312 166.029 162.726C165.707 162.14 165.269 161.626 164.741 161.216C163.678 160.336 162.318 159.896 160.94 159.986C159.562 160.077 158.272 160.69 157.332 161.701Z" fill="#263238"/>
<path d="M178.463 221.027C178.463 215.952 166.637 208.311 160.534 197.641C154.43 186.971 157.482 169.423 165.851 166.73C165.921 166.73 166.152 164.476 166.186 164.314C166.649 162.278 167.429 160.327 168.498 158.534C171.909 152.661 179.134 148.13 185.838 147.182C212.346 143.321 224.53 153.621 229.397 164.95C230.974 168.761 231.677 172.877 231.454 176.995C231.318 180.02 230.196 182.917 228.259 185.244C226.322 187.572 223.676 189.201 220.727 189.885L178.463 221.027Z" fill="#263238"/>
<path d="M215.236 161.158C220.426 163.47 225.362 171.365 225.281 193.584C225.212 212.427 219.432 217.189 216.519 218.588C213.606 219.987 207.907 219.27 202.369 218.426V229.246C202.369 229.246 206.519 233.327 205.063 235.893C203.606 238.46 198.231 240.633 189.873 238.009C180.405 235.038 178.244 228.761 178.244 228.761L178.024 205.017C178.024 205.017 174.845 208.357 169.238 203.456C164.614 199.398 162.95 192.451 166.429 188.636C169.909 184.821 174.371 184.521 178.394 188.786L181.284 187.26C186.44 186.659 194 185.792 199.572 182.983C213.86 175.712 215.34 167.828 215.236 161.158Z" fill="#AF4103"/>
<path d="M178.475 185.711L178.544 196.115C179.212 196.133 179.877 196.014 180.497 195.765C181.118 195.517 181.681 195.144 182.152 194.67C182.623 194.195 182.992 193.63 183.236 193.008C183.481 192.386 183.595 191.72 183.573 191.052C183.56 189.681 183.026 188.366 182.08 187.374C181.133 186.382 179.844 185.788 178.475 185.711Z" fill="#263238"/>
<path d="M215.721 187.191C215.726 187.68 215.874 188.157 216.148 188.562C216.421 188.967 216.807 189.283 217.258 189.471C217.71 189.659 218.206 189.711 218.686 189.619C219.166 189.527 219.609 189.297 219.96 188.956C220.31 188.615 220.552 188.178 220.657 187.701C220.762 187.223 220.724 186.726 220.548 186.269C220.373 185.813 220.067 185.419 219.669 185.134C219.272 184.85 218.799 184.689 218.311 184.671C217.974 184.663 217.64 184.723 217.327 184.846C217.014 184.969 216.728 185.153 216.487 185.388C216.246 185.622 216.054 185.903 215.923 186.212C215.791 186.522 215.723 186.855 215.721 187.191Z" fill="black"/>
<path d="M195.78 188.301C195.76 188.659 195.81 189.018 195.929 189.357C196.048 189.696 196.232 190.008 196.472 190.275C196.711 190.542 197.001 190.76 197.325 190.915C197.648 191.07 197.999 191.16 198.358 191.179C198.722 191.182 199.082 191.113 199.42 190.977C199.757 190.84 200.064 190.638 200.322 190.382C200.581 190.127 200.787 189.822 200.928 189.487C201.069 189.152 201.142 188.792 201.144 188.428C201.155 188.076 201.097 187.725 200.973 187.395C200.849 187.065 200.661 186.763 200.42 186.506C200.179 186.249 199.889 186.042 199.568 185.897C199.247 185.751 198.901 185.671 198.549 185.659C198.196 185.648 197.845 185.706 197.516 185.83C197.186 185.955 196.884 186.143 196.627 186.384C196.37 186.625 196.163 186.914 196.017 187.235C195.872 187.556 195.791 187.902 195.78 188.255V188.301Z" fill="black"/>
<path d="M222.333 182.532L215.895 179.978C216.043 179.544 216.28 179.147 216.59 178.809C216.9 178.472 217.276 178.202 217.694 178.016C218.113 177.831 218.566 177.733 219.024 177.731C219.482 177.728 219.936 177.82 220.357 178.001C221.205 178.358 221.884 179.028 222.252 179.871C222.62 180.715 222.649 181.668 222.333 182.532Z" fill="black"/>
<path d="M209.617 185.156L209.294 200.578L217.582 198.739L209.617 185.156Z" fill="#642502"/>
<path d="M199.849 203.722L207.941 206.23C207.824 206.782 207.594 207.304 207.266 207.763C206.938 208.222 206.52 208.609 206.036 208.899C205.553 209.19 205.015 209.378 204.455 209.451C203.896 209.525 203.328 209.483 202.786 209.328C201.675 208.942 200.753 208.148 200.208 207.106C199.662 206.065 199.534 204.855 199.849 203.722Z" fill="#B16668"/>
<path d="M204.323 209.467C204.314 208.342 203.86 207.266 203.061 206.473C202.263 205.681 201.183 205.236 200.057 205.236C199.946 205.231 199.834 205.231 199.722 205.236C199.764 206.139 200.076 207.009 200.618 207.733C201.16 208.456 201.907 209 202.762 209.294C203.265 209.46 203.796 209.519 204.323 209.467Z" fill="#642502"/>
<path d="M202.369 218.484C196.532 217.79 184.498 214.438 182.544 209.548C183.327 212.003 184.829 214.165 186.856 215.756C190.486 218.877 202.369 222.125 202.369 222.125V218.484Z" fill="#642502"/>
<path d="M178.186 220.102C176.66 219.79 175.307 220.461 174.059 222.565C172.81 224.669 170.071 229.154 170.071 229.154C170.071 229.154 168.649 243.939 170.071 247.65C171.296 250.84 184.81 262.805 184.81 262.805C184.81 262.805 181.284 276.087 181.157 280.446C181.03 284.804 189.249 301.346 190.243 309.808C190.243 309.808 193.168 283.22 191.907 273.637C189.734 257.025 181.943 235.57 178.267 228.749L178.186 220.102Z" fill="#EBEBEB"/>
<path d="M186.451 275.128C185.549 272.982 184.487 270.907 183.272 268.92C181.353 265.741 178.983 262.689 176.845 261.903C176.521 261.775 176.176 261.704 175.828 261.695H175.712C175.36 261.715 175.015 261.801 174.695 261.95C173.007 262.701 171.227 265.001 169.782 267.649C168.302 270.307 167.082 273.102 166.14 275.995C165.585 277.787 165.828 281.59 166.487 285.937C167.782 294.375 170.66 304.918 172.267 306.999C173.445 308.453 174.836 309.72 176.394 310.756C175.44 311.387 174.411 311.896 173.331 312.27C172.719 312.493 172.074 312.607 171.423 312.606V314.12H171.608C172.295 314.109 172.977 313.996 173.631 313.785C175.146 313.293 176.577 312.572 177.874 311.646C179.242 312.461 180.728 313.061 182.278 313.426C183.008 313.601 183.763 313.648 184.509 313.565L184.324 312.062C183.677 312.117 183.025 312.066 182.394 311.912C181.282 311.622 180.21 311.195 179.203 310.64C180.67 309.473 181.956 308.093 183.018 306.548C183.92 305.172 185.029 300.433 185.862 294.988C186.37 291.74 186.786 288.249 187.018 285.07C187.272 280.631 187.156 276.827 186.451 275.128ZM181.677 305.716C180.592 307.28 179.261 308.658 177.735 309.796C176.114 308.795 174.669 307.534 173.458 306.063C171.955 304.109 169.181 293.821 167.932 285.705C167.296 281.602 167.065 278.053 167.574 276.457C168.516 273.53 169.764 270.709 171.296 268.042C172.891 265.29 174.591 263.267 175.77 263.221C177.168 263.221 179.434 265.753 181.55 269.001C181.977 269.637 182.382 270.331 182.775 271.024C183.637 272.518 184.409 274.062 185.087 275.648C185.723 277.22 185.792 280.769 185.503 284.896C185.341 287.208 185.087 289.624 184.763 292.029C183.885 298.306 182.648 304.19 181.677 305.681V305.716Z" fill="#455A64"/>
<path d="M186.578 312.675C186.596 313.116 186.483 313.553 186.253 313.929C186.022 314.306 185.685 314.606 185.284 314.791C184.883 314.976 184.436 315.038 184 314.969C183.564 314.9 183.158 314.703 182.834 314.404C182.51 314.104 182.282 313.714 182.179 313.285C182.076 312.855 182.103 312.405 182.257 311.991C182.41 311.577 182.683 311.217 183.041 310.959C183.398 310.7 183.825 310.553 184.266 310.536C184.856 310.514 185.431 310.727 185.864 311.128C186.297 311.529 186.554 312.085 186.578 312.675Z" fill="#263238"/>
<path d="M173.619 313.276C173.64 313.718 173.528 314.155 173.3 314.534C173.071 314.912 172.735 315.213 172.334 315.4C171.933 315.587 171.486 315.651 171.049 315.583C170.612 315.516 170.206 315.32 169.88 315.02C169.555 314.721 169.326 314.332 169.222 313.902C169.118 313.472 169.144 313.022 169.297 312.607C169.45 312.192 169.723 311.832 170.081 311.572C170.439 311.313 170.866 311.165 171.307 311.149C171.599 311.137 171.89 311.182 172.164 311.282C172.438 311.382 172.69 311.536 172.905 311.733C173.119 311.931 173.293 312.169 173.416 312.433C173.538 312.698 173.608 312.984 173.619 313.276Z" fill="#263238"/>
<path d="M186.833 285.046L185.549 284.954C185.419 284.942 185.297 284.88 185.211 284.781C185.125 284.682 185.081 284.553 185.087 284.422C185.353 280.18 185.214 277.059 184.694 275.81C182.451 270.331 177.758 263.464 175.781 263.545C173.804 263.626 169.712 270.874 167.932 276.515C167.527 277.81 167.655 280.931 168.267 285.139C168.287 285.268 168.256 285.399 168.181 285.505C168.105 285.611 167.991 285.683 167.863 285.705L166.591 285.902C166.458 285.918 166.323 285.881 166.217 285.799C166.111 285.717 166.042 285.596 166.025 285.463C165.319 280.746 165.238 277.509 165.77 275.833C166.718 272.804 171.192 261.464 175.689 261.279C180.186 261.094 185.607 272.007 186.809 274.955C187.468 276.573 187.665 279.81 187.364 284.561C187.355 284.695 187.295 284.82 187.196 284.911C187.097 285.001 186.967 285.05 186.833 285.046Z" fill="#3A4BE6"/>
<path d="M159.112 231.096C150.65 230.957 146.743 233.813 141.379 240.991C137.125 246.69 120.571 277.486 115.08 286.48L85.1856 270.504C79.1397 266.331 77.1861 259.742 73.3597 255.892C69.5333 252.043 65.5683 251.268 61.3604 248.089C57.1526 244.91 55.4417 242.436 54.2279 245.407C53.0141 248.378 57.6959 253.187 58.586 254.378C59.4761 255.569 64.1695 258.216 58.0774 258.308C51.9853 258.401 39.9282 252.089 36.9919 250.968C34.0557 249.846 34.2291 253.349 35.6741 255.592C37.1191 257.834 37.0497 264.169 39.4889 267.834C42.0668 271.718 43.4771 273.406 49.2224 275.926C54.5631 278.238 65.7763 279.162 71.4523 282.711C77.1283 286.26 91.1968 298.768 99.7512 306.271C110.629 315.808 118.132 317.553 124.189 311.831C130.073 305.67 136.038 298.445 138.951 294.78C146.8 284.896 159.216 262.412 159.216 262.412C159.216 262.412 164.591 250.852 159.112 231.096Z" fill="#AF4103"/>
<path d="M160.279 230.252C147.818 230.252 144.095 234.76 137.714 245.176C131.333 255.592 114.964 285.405 114.964 285.405L91.3933 273.059C91.3933 273.059 87.1507 282.399 82.6423 292.029C82.6423 292.029 95.9826 303.589 102.294 309.057C108.606 314.524 116.976 318.813 124.732 312.12C133.021 304.976 159.898 267.857 159.898 267.857C166.279 256.274 164.857 238.714 160.279 230.252Z" fill="#F0F0F0"/>
<path d="M114.964 285.405C118.814 289.936 123.472 295.034 123.264 299.046C123.264 299.046 125.9 295.485 116.64 282.365L114.964 285.405Z" fill="#E0E0E0"/>
<path d="M70.3773 174.232L60.7362 179.758L60.7709 168.684L53.5574 164.522L36.7376 174.232V193.653L19.9178 203.364V222.784L27.1313 226.946L36.7376 221.397V232.506L43.9511 236.668L60.7709 226.946V207.525L77.5907 197.815V178.394L70.3773 174.232Z" fill="#3A4BE6"/>
<path d="M27.1313 207.525V226.946L43.9511 217.236V236.668L60.7709 226.946V207.525L77.5907 197.815V178.394L60.7131 188.139L60.7709 168.684L43.9511 178.394V197.815L27.1313 207.525Z" fill="#3A4BE6"/>
<g opacity="0.2">
<path opacity="0.2" d="M27.1313 226.946L19.9178 222.784V203.364L27.1313 207.525V226.946Z" fill="black"/>
<path opacity="0.2" d="M43.9511 178.394L36.7377 174.232V193.653L43.9511 197.815V178.394Z" fill="black"/>
<path opacity="0.2" d="M43.9511 236.668L36.7377 232.506V221.397L43.9511 217.236V236.668Z" fill="black"/>
</g>
<g opacity="0.5">
<path opacity="0.5" d="M43.9511 197.815L36.7376 193.653L19.9178 203.364L27.1313 207.525L43.9511 197.815Z" fill="white"/>
<path opacity="0.5" d="M60.7709 168.684L53.5575 164.522L36.7377 174.232L43.9511 178.394L60.7709 168.684Z" fill="white"/>
<path opacity="0.5" d="M77.5907 178.394L70.3773 174.232L60.7363 179.758L60.7131 188.139L77.5907 178.394Z" fill="white"/>
</g>
<path d="M347.031 135.252C346.726 134.987 346.397 134.751 346.049 134.547C344.823 133.819 339.274 130.628 338.985 130.455C336.049 128.582 331.402 128.998 327.264 131.09C321.333 134.084 316.397 140.408 312.629 150.939C312.629 150.939 308.814 148.199 307.577 147.471C304.514 145.795 300.93 146.604 296.895 149.228C292.352 152.187 289.254 156.025 286.422 161.828V161.933C283.968 166.86 282.626 172.267 282.492 177.77C282.492 189.942 287.474 195.746 293.959 200.104C295.809 201.352 300.699 203.976 301.184 204.3C305.098 206.884 309.427 208.777 313.981 209.895L320.374 211.386L326.767 202.52C331.421 195.982 335.693 189.181 339.563 182.151C346.049 170.302 351.123 158.696 351.031 146.569C350.938 141.379 349.447 137.564 347.031 135.252Z" fill="#3A4BE6"/>
<path opacity="0.3" d="M347.031 135.252C346.726 134.987 346.397 134.751 346.049 134.547C344.823 133.819 339.274 130.628 338.985 130.455C336.049 128.582 331.402 128.998 327.264 131.09C321.333 134.084 316.397 140.408 312.629 150.939C312.629 150.939 308.814 148.199 307.577 147.471C304.514 145.795 300.93 146.604 296.895 149.228C292.352 152.187 289.254 156.025 286.422 161.828V161.933C283.968 166.86 282.626 172.267 282.492 177.77C282.492 189.942 287.474 195.746 293.959 200.104C295.809 201.352 300.699 203.976 301.184 204.3C305.098 206.884 309.427 208.777 313.981 209.895L320.374 211.386L326.767 202.52C331.421 195.982 335.693 189.181 339.563 182.151C346.049 170.302 351.123 158.696 351.031 146.569C350.938 141.379 349.447 137.564 347.031 135.252Z" fill="black"/>
<path d="M347.031 135.252C346.726 134.987 346.397 134.751 346.048 134.547C344.823 133.819 339.274 130.628 338.985 130.455C336.049 128.582 331.402 128.998 327.263 131.09C321.333 134.084 316.397 140.408 312.629 150.939C312.629 150.939 308.814 148.199 307.577 147.471C304.513 145.795 300.93 146.604 296.895 149.228C292.352 152.187 289.254 156.025 286.422 161.828V161.933C286.295 162.187 286.191 162.441 286.075 162.695L334.627 190.694C336.35 187.896 338.026 185.064 339.621 182.151C346.106 170.302 351.181 158.696 351.089 146.569C350.938 141.379 349.447 137.564 347.031 135.252Z" fill="#3A4BE6"/>
<path opacity="0.15" d="M347.031 135.252C346.726 134.987 346.397 134.751 346.048 134.547C344.823 133.819 339.274 130.628 338.985 130.455C336.049 128.582 331.402 128.998 327.263 131.09C321.333 134.084 316.397 140.408 312.629 150.939C312.629 150.939 308.814 148.199 307.577 147.471C304.513 145.795 300.93 146.604 296.895 149.228C292.352 152.187 289.254 156.025 286.422 161.828V161.933C286.295 162.187 286.191 162.441 286.075 162.695L334.627 190.694C336.35 187.896 338.026 185.064 339.621 182.151C346.106 170.302 351.181 158.696 351.089 146.569C350.938 141.379 349.447 137.564 347.031 135.252Z" fill="black"/>
<path d="M312.594 150.893L319.091 159.366L329.564 146.974L317.727 140.142C315.618 143.522 313.897 147.128 312.594 150.893Z" fill="#3A4BE6"/>
<path opacity="0.3" d="M312.594 150.893L319.091 159.366L329.564 146.974L317.727 140.142C315.618 143.522 313.897 147.128 312.594 150.893Z" fill="black"/>
<path d="M347.031 135.252C344.199 132.72 339.043 132.94 334.489 135.252C328.281 138.396 323.148 145.182 319.31 156.673C315.472 149.621 310.34 149.401 304.132 153.436C299.577 156.395 296.479 160.233 293.659 166.036L293.601 166.14C291.155 171.075 289.818 176.484 289.682 181.989C289.682 194.162 294.676 199.965 301.15 204.323C305.063 206.907 309.392 208.8 313.947 209.918L320.339 211.409L326.732 202.543C331.386 196.005 335.659 189.204 339.529 182.174C346.014 170.325 351.089 158.719 350.996 146.592C350.939 141.379 349.447 137.564 347.031 135.252Z" fill="#3A4BE6"/>
<g opacity="0.07">
<path opacity="0.07" d="M341.575 134.096C343.357 134.014 345.109 134.577 346.511 135.68C346.535 135.73 346.571 135.773 346.615 135.807C348.996 137.98 350.326 141.841 350.337 146.65C350.337 159.308 344.557 171.597 338.951 181.931C335.11 188.939 330.864 195.717 326.235 202.231L320.096 210.773L314.12 209.375C309.633 208.273 305.368 206.412 301.508 203.872C295.728 199.942 290.272 194.624 290.318 182.047C290.441 176.638 291.738 171.321 294.121 166.464V166.36C296.965 160.522 300.028 156.835 304.375 154.014C306.394 152.516 308.802 151.633 311.311 151.471C314.247 151.471 316.663 153.286 318.698 157.019C318.748 157.119 318.826 157.203 318.922 157.26C319.019 157.318 319.129 157.346 319.241 157.343H319.299C319.418 157.332 319.532 157.287 319.626 157.213C319.72 157.139 319.791 157.04 319.831 156.927C323.495 145.957 328.362 139.067 334.697 135.865C336.812 134.757 339.153 134.152 341.54 134.096H341.575ZM341.54 133.483C339.058 133.535 336.62 134.16 334.419 135.31C328.212 138.454 323.079 145.24 319.241 156.73C317.022 152.638 314.363 150.846 311.311 150.846C308.692 151.019 306.176 151.937 304.063 153.494C299.508 156.453 296.41 160.291 293.589 166.094L293.532 166.198C291.086 171.132 289.749 176.542 289.613 182.047C289.613 194.22 294.607 200.023 301.08 204.381C304.994 206.965 309.323 208.857 313.877 209.976L320.27 211.467L326.663 202.601C331.317 196.063 335.589 189.262 339.459 182.232C345.945 170.383 351.019 158.777 350.927 146.65C350.927 141.437 349.413 137.564 346.997 135.344C345.471 134.102 343.541 133.464 341.575 133.553L341.54 133.483Z" fill="black"/>
</g>
<path d="M346.326 168.025L333.887 175.215L329.263 158.395C329.198 158.141 329.048 157.916 328.838 157.759C328.627 157.601 328.37 157.52 328.107 157.528C327.837 157.523 327.573 157.612 327.362 157.781C327.151 157.95 327.005 158.188 326.951 158.453L319.75 191.353L313.692 174.776C313.68 174.469 313.546 174.18 313.321 173.972C313.095 173.764 312.796 173.654 312.49 173.666C312.183 173.678 311.894 173.812 311.686 174.037C311.478 174.263 311.368 174.562 311.38 174.868L307.288 189.399L293.601 197.306C294.051 197.961 294.537 198.59 295.057 199.19L308.929 191.202C309.198 191.047 309.396 190.795 309.484 190.497L312.71 179.03L318.917 195.977C319 196.214 319.157 196.418 319.366 196.557C319.574 196.697 319.823 196.765 320.073 196.751C320.33 196.738 320.575 196.641 320.769 196.473C320.964 196.306 321.097 196.078 321.148 195.826L328.2 163.667L331.922 177.319C331.966 177.495 332.051 177.657 332.17 177.794C332.289 177.931 332.438 178.038 332.605 178.107C332.773 178.175 332.954 178.204 333.135 178.189C333.315 178.175 333.49 178.118 333.645 178.024L344.696 171.654C345.332 170.441 345.84 169.238 346.326 168.025Z" fill="white"/>
<path d="M398.531 477.185C398.057 478.752 398.017 480.418 398.416 482.006C398.878 482.977 401.768 486.167 407.663 487.323C413.559 488.479 421.663 487.323 425.154 487.115C428.645 486.907 439.604 488.271 443.083 488.711C448.563 489.45 452.771 488.248 454.817 486.271C455.148 485.874 455.392 485.411 455.534 484.914C455.675 484.416 455.71 483.894 455.637 483.381C455.626 482.062 455.431 480.751 455.059 479.486L398.531 477.185Z" fill="#263238"/>
<path d="M454.158 473.752C454.262 474.203 454.366 474.665 454.458 475.128C454.992 477.453 455.16 479.848 454.955 482.225C454.25 483.959 452.32 484.919 450.759 485.404C446.632 486.722 443.499 486.56 438.933 485.647C434.341 484.978 429.701 484.692 425.061 484.792C421.466 485.034 416.518 485.728 412.923 485.393C409.866 485.266 406.849 484.649 403.987 483.566C401.594 482.549 399.144 481.254 398.554 478.757C397.849 473.555 400.034 471.267 402.496 469.81C404.958 468.353 408.461 468.469 412.207 468.226C415.594 467.995 418.067 467.995 421.085 467.764C423.693 467.637 426.285 467.277 428.83 466.689C431.142 465.972 433.454 463.07 434.402 462.966C434.402 462.966 449.488 462.851 450.921 462.966C452.586 463.105 453.094 468.261 453.302 469.382C453.464 470.261 453.499 471.209 453.73 472.053C453.88 472.619 454.019 473.185 454.158 473.752Z" fill="#37474F"/>
<path d="M407.675 484.699C407.201 480.954 406.519 472.839 413.455 468.145H414.322C411.207 467.244 407.9 467.244 404.785 468.145C399.271 469.613 396.82 474.076 398.196 478.792C398.219 478.746 399.444 483.312 407.675 484.699Z" fill="#FAFAFA"/>
<path d="M427.801 466.955C425.57 468.932 424.795 473.428 424.795 473.428C424.506 475.116 421.455 475.37 421.744 473.74C422.21 471.499 423.109 469.371 424.391 467.475C425.437 466.923 426.638 466.74 427.801 466.955Z" fill="#FAFAFA"/>
<path d="M421.547 467.729C419.865 469.377 418.765 471.527 418.414 473.856C418.102 475.474 415.559 475.451 415.744 473.856C415.744 473.856 416.033 469.868 418.414 468.007C418.876 467.711 419.401 467.532 419.947 467.484C420.492 467.435 421.041 467.52 421.547 467.729Z" fill="#FAFAFA"/>
<path d="M451.383 451.996C451.383 451.996 450.979 461.695 450.447 464.874C450.123 466.77 447.638 468.758 441.453 468.55C437.107 468.4 433.685 468.758 433.858 465.359L434.24 455.453L451.383 451.996Z" fill="#AF4103"/>
<path d="M461.082 429.084C460.863 431.731 460.504 434.124 461.591 437.037C463.14 441.222 466.423 443.141 468.353 444.783C470.384 446.795 472.259 448.959 473.96 451.256C475.856 453.568 476.353 454.944 479.197 457.464C480.614 458.555 482.29 459.259 484.061 459.509C485.832 459.758 487.637 459.543 489.3 458.886C491.762 457.834 492.618 457.001 492.468 453.221C492.317 449.441 480.272 448.158 480.272 448.158L461.082 429.084Z" fill="#263238"/>
<path d="M490.907 441.962C491.936 442.332 492.19 444.193 492.352 447.892C492.468 450.69 493.705 454.828 489.647 456.551C486.376 457.973 481.15 457.025 478.942 454.389C476.191 451.094 474.318 448.193 470.388 444.181C466.92 440.713 463.452 439.557 461.915 432.564C460.932 428.078 461.706 426.229 464.874 424.946C469.232 423.177 476.064 428.945 479.486 429.859C482.422 430.633 489.878 441.592 490.907 441.962Z" fill="#37474F"/>
<path d="M479.486 429.859L478.908 429.662C476.959 429.735 475.063 430.316 473.408 431.348C471.753 432.381 470.397 433.828 469.475 435.546C468.897 436.76 470.631 437.708 471.787 436.76C474.214 432.136 479.208 431.142 481.208 430.922C480.716 430.449 480.129 430.087 479.486 429.859Z" fill="#FAFAFA"/>
<path d="M482.295 431.963C480.465 432.134 478.707 432.757 477.177 433.776C475.648 434.795 474.395 436.178 473.532 437.8C472.954 438.956 474.746 439.962 475.844 438.956C476.67 437.51 477.8 436.261 479.158 435.296C480.516 434.332 482.068 433.676 483.705 433.373C483.208 432.91 482.746 432.413 482.295 431.963Z" fill="#FAFAFA"/>
<path d="M491.497 435.28L490.907 443.083C490.907 443.083 485.948 446.702 478.839 443.384C478.63 442.956 478.029 435.974 478.029 435.974L491.497 435.28Z" fill="#AF4103"/>
<path d="M463.914 437.708C463.914 437.708 464.25 429.419 476.029 428.275L476.711 428.633C475.371 426.555 473.314 425.041 470.931 424.379C467.024 423.373 463.926 424.379 461.868 426.853C459.811 429.327 461.88 436.101 463.914 437.708Z" fill="#FAFAFA"/>
<path d="M494.93 383.306C493.242 369.654 492.618 362.048 492.618 362.048C492.618 362.048 492.283 342.823 493.45 325.056C493.959 317.264 494.225 308.64 494.387 300.78C494.602 292.123 493.912 283.468 492.329 274.955C492.329 274.955 431.882 262.932 431.13 285.104C430.217 311.692 430.333 357.135 429.304 374.486C428.737 384.231 429.72 392.312 430.333 411.247C430.83 426.945 430.679 465.579 430.679 465.579C437.338 474.723 453.06 467.752 453.06 467.752C453.06 467.752 457.915 413.501 458.631 402.288C459.394 390.231 458.123 384.127 458.123 384.127L464.354 327.957C464.354 327.957 464.828 345.979 465.359 355.701C465.891 365.423 467.313 371.4 469.845 389.537C472.041 405.282 476.711 445.465 476.711 445.465C484.803 450.25 492.618 445.465 492.618 445.465C492.618 445.465 496.618 396.959 494.93 383.306Z" fill="#455A64"/>
<path d="M486.676 305.727C486.676 305.727 479.104 315.391 469.336 319.542C469.336 319.542 465.105 353.516 465.14 352.846L464.042 318.651C464.042 318.651 478.584 312.224 486.676 305.727Z" fill="#37474F"/>
<path d="M486.468 196.52C492.976 195.063 500.34 199.711 505.241 210.08C509.981 219.998 522.928 245.049 523.24 252.066C523.576 259.337 491.231 281.394 492.028 280.966C492.283 280.839 486.445 264.285 486.445 264.285L502.155 251.28L493.612 233.685L486.468 196.52Z" fill="#AF4103"/>
<path d="M483.046 194.959C488.526 194.289 498.456 196.358 502.247 202.947C507.75 212.484 512.767 223.513 519.16 237.766C519.16 237.766 514.42 248.031 500.779 249.002L492.606 234.668L483.046 194.959Z" fill="#37474F"/>
<path d="M455.464 186.37L456.412 206.6L476.457 205.525L475.844 182.024L455.464 186.37Z" fill="#AF4103"/>
<path d="M496.144 205.144C494.456 199.63 488.63 195.087 481.266 194.867C479.625 194.867 476.18 194.867 476.18 194.867C475.347 198.277 464.909 199.491 455.984 197.445C453.291 198.162 442.112 200.913 439.8 201.606C433.385 203.733 431.408 210.276 430.414 231.2C430.414 231.2 430.61 272.446 430.414 292.133C441.696 298.086 459.129 297.346 471.533 296.086C491.023 294.121 493.924 287.058 493.924 287.058C493.103 275.579 493.601 271.255 493.924 259.927C494.167 251.407 496.618 242.402 497.392 232.749C498.537 218.403 497.288 208.935 496.144 205.144Z" fill="#3A4BE6"/>
<path d="M452.331 190.208C447.707 189.885 441.927 193.572 440.436 201.468L444.205 200.462L452.331 190.208Z" fill="#3A4BE6"/>
<path opacity="0.3" d="M452.331 190.208C447.707 189.885 441.927 193.572 440.436 201.468L444.205 200.462L452.331 190.208Z" fill="black"/>
<path d="M455.718 191.896C459.186 193.052 469.301 192.89 472.688 191.896C476.075 190.902 476.041 189.399 476.041 189.399V187.7C477.994 187.694 479.902 188.287 481.509 189.399C483.67 191.156 487.393 197.491 487.289 200.531C487.185 203.572 480.688 211.594 468.157 211.398C455.626 211.201 448.586 206.566 446.424 203.514L444.251 200.45C444.251 200.45 447.222 194.347 450.146 191.78C451.646 190.327 453.569 189.388 455.637 189.099L455.718 191.896Z" fill="#3A4BE6"/>
<path opacity="0.2" d="M455.718 191.896C459.186 193.052 469.301 192.89 472.688 191.896C476.075 190.902 476.041 189.399 476.041 189.399V187.7C477.994 187.694 479.902 188.287 481.509 189.399C483.67 191.156 487.393 197.491 487.289 200.531C487.185 203.572 480.688 211.594 468.157 211.398C455.626 211.201 448.586 206.566 446.424 203.514L444.251 200.45C444.251 200.45 447.222 194.347 450.146 191.78C451.646 190.327 453.569 189.388 455.637 189.099L455.718 191.896Z" fill="black"/>
<path d="M441.973 161.563C441.973 161.563 437.199 168.811 437.743 169.516C438.286 170.221 441.8 170.88 441.8 170.88L441.973 161.563Z" fill="#642502"/>
<path d="M455.245 141.494C445.58 143.541 441.719 146.373 441.118 162.892C440.54 178.96 442.563 184.255 444.667 186.417C446.089 187.873 454.008 188.139 457.996 187.029C462.99 185.654 474.284 181.654 479.567 173.585C485.786 164.083 487.416 151.205 480.723 145.922C471.394 138.489 459.186 140.662 455.245 141.494Z" fill="#AF4103"/>
<path d="M444.667 186.405C445.823 187.561 451.36 188 455.522 187.492L455.464 185.099C452.016 186.371 448.319 186.818 444.667 186.405Z" fill="#642502"/>
<path d="M439.835 147.702C442.242 149.428 445.229 150.146 448.158 149.702C448.1 150.997 448.448 152.278 449.152 153.367C450.133 154.851 451.621 155.927 453.337 156.395C452.279 158.469 451.717 160.76 451.695 163.088C451.63 163.819 451.787 164.553 452.146 165.192C452.257 165.425 452.432 165.621 452.65 165.759C452.867 165.896 453.12 165.969 453.377 165.969C453.635 165.969 453.887 165.896 454.105 165.759C454.323 165.621 454.498 165.425 454.609 165.192C455.152 163.963 455.835 162.799 456.643 161.724C457.691 160.47 459.164 159.647 460.782 159.412C466.851 158.753 467.614 166.695 465.186 169.99C461.209 175.377 457.834 171.724 457.834 171.724C457.679 174.249 458.062 176.778 458.959 179.144C459.856 181.51 461.246 183.658 463.036 185.446C467.35 186.717 471.922 186.832 476.295 185.781C481.682 178.371 485.069 174.764 487.948 168.371C494.028 154.835 491.092 146.338 486.387 142.754C485.462 136.524 480.549 133.726 474.943 132.443C466.573 130.512 458.759 135.483 450.458 133.599C449.096 133.314 447.75 132.959 446.424 132.535C445.913 132.296 445.331 132.259 444.794 132.431C444.497 132.629 444.263 132.91 444.124 133.238C443.984 133.567 443.944 133.93 444.008 134.281C444.112 135.876 445.73 137.645 446.551 138.5C444.739 138.666 442.911 138.561 441.13 138.188C440.511 138.072 439.876 138.072 439.257 138.188C438.578 138.465 438.004 138.949 437.618 139.573C437.231 140.196 437.052 140.925 437.107 141.656C437.114 142.799 437.36 143.927 437.83 144.968C438.3 146.01 438.983 146.941 439.835 147.702Z" fill="#263238"/>
<path d="M486.537 144.766L492.317 141.298C491.858 140.531 491.112 139.979 490.245 139.762C489.378 139.545 488.46 139.682 487.693 140.142C486.927 140.602 486.375 141.347 486.158 142.215C485.941 143.082 486.078 143.999 486.537 144.766Z" fill="#263238"/>
<path d="M411.212 235.824C409.902 230.676 408.638 225.52 407.421 220.357C406.265 215.606 404.484 210.103 406.114 205.248C407.041 203.127 408.204 201.119 409.582 199.26C410.775 197.301 411.781 195.234 412.588 193.087C412.993 192.046 413.363 190.983 413.744 189.931C414.126 188.879 414.669 188.278 414.414 187.272C413.571 183.977 409.317 188.301 408.45 189.653C408.065 190.363 407.616 191.037 407.109 191.665C406.554 192.254 405.201 192.994 404.554 192.127C404.338 191.779 404.218 191.38 404.207 190.971C403.768 185.896 405.594 181.353 407.109 176.614C407.348 175.991 407.492 175.337 407.536 174.672C407.564 174.34 407.519 174.005 407.405 173.692C407.292 173.379 407.112 173.094 406.877 172.857C406.501 172.568 406.054 172.383 405.583 172.322C405.112 172.261 404.633 172.326 404.195 172.51C403.34 172.799 402.6 173.342 401.745 173.608C400.889 173.874 400.253 173.874 399.502 174.071C397.719 174.468 396.003 175.118 394.404 176.001C391.63 177.631 390.404 180.012 389.676 183.041C388.801 186.761 388.505 190.594 388.798 194.405C388.994 196.936 389.445 199.433 389.757 201.93L390.797 210.288C391.503 215.86 391.711 243.696 392.67 249.234C393.63 254.771 395.479 258.482 399.86 260.32C406.218 262.909 416.495 251.21 422.333 245.153L411.212 235.824Z" fill="#AF4103"/>
<path d="M408.889 232.668C404.797 235.732 399.699 240.829 398.67 245.939C398.67 245.939 397.653 236.749 408.889 228.599V232.668Z" fill="#642502"/>
<path d="M439.477 201.734C435.546 202.104 429.072 202.242 422.483 209.329C414.842 217.605 403.062 233.928 403.062 233.928C403.062 233.928 404.6 246.922 417.108 251.58C417.108 251.58 435.292 234.24 439.199 226.773C443.106 219.305 443.985 206.924 439.477 201.734Z" fill="#37474F"/>
<path d="M434.24 174.267L429.269 171.597L432.125 169.157L421.802 164.325L426.31 161.713L415.189 155.794L421.802 161.632L416.426 164.325L428.553 169.574L425.559 172.568L434.24 174.267Z" fill="#3A4BE6"/>
<path d="M436.772 167.712L433.535 164.614L435.303 163.308L432.46 159.933L435.188 159.008L434.24 154.731L436.159 159.343L434.24 160.175L437.315 163.551L435.234 165.031L436.772 167.712Z" fill="#3A4BE6"/>
<path d="M434.887 179.157L428.784 183.92L426.529 180.602L421.189 183.503L419.004 179.4L410.739 181.515L420.299 176.937L423.038 180.718L427.477 178.336L429.327 181.515L434.887 179.157Z" fill="#3A4BE6"/>
<path d="M392.45 264.389C392.636 264.235 392.875 264.16 393.116 264.182C393.356 264.203 393.579 264.319 393.734 264.504C394.916 265.832 396.451 266.795 398.16 267.283C399.869 267.77 401.682 267.76 403.386 267.256C403.503 267.215 403.626 267.198 403.749 267.206C403.872 267.213 403.992 267.246 404.102 267.302C404.212 267.357 404.31 267.435 404.389 267.529C404.468 267.623 404.528 267.733 404.564 267.851C404.6 267.969 404.611 268.093 404.598 268.215C404.585 268.338 404.547 268.456 404.486 268.564C404.426 268.671 404.345 268.765 404.247 268.841C404.149 268.916 404.037 268.97 403.918 269.001C401.874 269.606 399.7 269.614 397.652 269.024C395.604 268.434 393.767 267.271 392.358 265.672C392.279 265.582 392.218 265.477 392.18 265.364C392.142 265.25 392.127 265.13 392.135 265.011C392.144 264.891 392.176 264.775 392.23 264.668C392.284 264.561 392.359 264.466 392.45 264.389Z" fill="#E0E0E0"/>
<path d="M393.375 270.504C393.538 270.369 393.742 270.294 393.953 270.294C394.165 270.294 394.369 270.369 394.531 270.504C395.472 271.184 396.551 271.651 397.691 271.87C398.831 272.09 400.006 272.058 401.132 271.776C401.371 271.731 401.618 271.783 401.819 271.919C402.02 272.056 402.16 272.266 402.207 272.504C402.231 272.621 402.231 272.741 402.207 272.858C402.184 272.975 402.138 273.086 402.071 273.185C402.004 273.284 401.919 273.369 401.819 273.434C401.719 273.5 401.608 273.545 401.49 273.567C400.098 273.891 398.651 273.904 397.253 273.606C395.855 273.309 394.539 272.707 393.398 271.845C393.307 271.767 393.232 271.672 393.178 271.566C393.124 271.459 393.092 271.342 393.083 271.223C393.075 271.103 393.09 270.983 393.128 270.87C393.166 270.756 393.227 270.652 393.306 270.562C393.327 270.54 393.35 270.52 393.375 270.504Z" fill="#E0E0E0"/>
<path d="M506.883 200.439C506.776 200.494 506.659 200.528 506.54 200.537C506.42 200.547 506.299 200.532 506.185 200.495C506.071 200.457 505.965 200.397 505.875 200.318C505.784 200.239 505.71 200.142 505.658 200.034C504.814 198.47 503.544 197.177 501.995 196.305C500.446 195.434 498.682 195.019 496.907 195.11C496.787 195.117 496.667 195.1 496.553 195.06C496.44 195.021 496.335 194.959 496.246 194.879C496.065 194.717 495.955 194.491 495.941 194.248C495.928 194.006 496.011 193.769 496.172 193.587C496.334 193.406 496.56 193.297 496.803 193.283C498.933 193.172 501.052 193.67 502.909 194.721C504.766 195.771 506.285 197.33 507.288 199.214C507.393 199.43 507.41 199.68 507.334 199.908C507.259 200.137 507.097 200.328 506.883 200.439Z" fill="#E0E0E0"/>
<path d="M507.392 194.312C507.198 194.414 506.974 194.442 506.761 194.391C506.549 194.34 506.362 194.213 506.236 194.035C505.489 193.163 504.564 192.462 503.523 191.979C502.482 191.496 501.349 191.243 500.201 191.237C500.081 191.233 499.963 191.204 499.854 191.154C499.745 191.104 499.647 191.033 499.566 190.945C499.484 190.857 499.421 190.754 499.379 190.641C499.337 190.529 499.318 190.409 499.323 190.289C499.327 190.169 499.355 190.051 499.405 189.942C499.456 189.833 499.527 189.735 499.615 189.654C499.703 189.572 499.806 189.509 499.918 189.467C500.031 189.425 500.151 189.406 500.271 189.411C501.696 189.425 503.101 189.751 504.387 190.366C505.673 190.981 506.809 191.87 507.715 192.971C507.846 193.167 507.894 193.406 507.851 193.637C507.808 193.868 507.676 194.073 507.484 194.208L507.392 194.312Z" fill="#E0E0E0"/>
<path d="M523.552 260.944C523.437 260.732 523.409 260.483 523.477 260.252C523.544 260.02 523.7 259.824 523.911 259.707C525.433 258.791 526.664 257.462 527.46 255.874C528.257 254.286 528.585 252.504 528.408 250.736C528.393 250.617 528.403 250.496 528.436 250.38C528.469 250.265 528.525 250.157 528.6 250.063C528.676 249.969 528.769 249.892 528.875 249.835C528.981 249.778 529.097 249.742 529.217 249.731C529.457 249.705 529.699 249.775 529.887 249.927C530.076 250.079 530.196 250.299 530.223 250.54C530.429 252.654 530.031 254.783 529.075 256.68C528.12 258.577 526.646 260.164 524.824 261.256C524.721 261.321 524.605 261.364 524.485 261.383C524.364 261.403 524.241 261.398 524.122 261.369C524.004 261.339 523.892 261.287 523.794 261.214C523.697 261.141 523.614 261.049 523.552 260.944Z" fill="#E0E0E0"/>
<path d="M529.691 261.164C529.588 260.975 529.553 260.757 529.593 260.546C529.633 260.335 529.745 260.145 529.911 260.008C530.749 259.223 531.408 258.266 531.841 257.202C532.274 256.138 532.471 254.993 532.419 253.846C532.419 253.604 532.515 253.372 532.687 253.2C532.858 253.029 533.09 252.933 533.332 252.933C533.574 252.933 533.807 253.029 533.978 253.2C534.149 253.372 534.246 253.604 534.246 253.846C534.295 255.269 534.036 256.686 533.485 257.999C532.934 259.313 532.105 260.491 531.055 261.453C530.961 261.527 530.853 261.582 530.738 261.615C530.622 261.648 530.501 261.657 530.382 261.643C530.263 261.629 530.148 261.592 530.043 261.534C529.938 261.475 529.846 261.396 529.772 261.302L529.691 261.164Z" fill="#E0E0E0"/>
<path d="M423.35 371.076C423.566 371.185 423.731 371.375 423.808 371.604C423.886 371.833 423.871 372.083 423.767 372.301C423.034 373.92 422.778 375.713 423.028 377.471C423.278 379.23 424.023 380.881 425.177 382.231C425.333 382.418 425.41 382.658 425.39 382.9C425.371 383.142 425.257 383.367 425.073 383.526C424.89 383.683 424.653 383.762 424.412 383.744C424.172 383.727 423.948 383.615 423.79 383.434C422.404 381.808 421.511 379.821 421.216 377.706C420.921 375.59 421.236 373.435 422.125 371.492C422.234 371.276 422.424 371.112 422.653 371.034C422.882 370.956 423.132 370.971 423.35 371.076Z" fill="#E0E0E0"/>
<path d="M418.171 374.371C418.369 374.464 418.526 374.625 418.615 374.824C418.705 375.023 418.719 375.248 418.657 375.457C418.414 376.58 418.418 377.743 418.667 378.864C418.917 379.986 419.406 381.04 420.102 381.954C420.238 382.153 420.292 382.397 420.251 382.634C420.21 382.872 420.077 383.084 419.882 383.226C419.684 383.365 419.439 383.42 419.201 383.379C418.963 383.338 418.75 383.204 418.611 383.006C417.754 381.863 417.157 380.547 416.861 379.149C416.566 377.751 416.579 376.306 416.9 374.914C416.935 374.798 416.994 374.69 417.071 374.597C417.149 374.504 417.244 374.427 417.352 374.371C417.459 374.315 417.577 374.281 417.698 374.271C417.819 374.261 417.94 374.275 418.056 374.313L418.171 374.371Z" fill="#E0E0E0"/>
<path d="M355.412 53.6962C355.355 52.6183 355.044 51.5691 354.503 50.6348C353.963 49.7004 353.209 48.9074 352.302 48.3208L349.782 46.8527C348.819 46.3705 347.756 46.1194 346.679 46.1194C345.601 46.1194 344.538 46.3705 343.575 46.8527L285.023 80.6888C284.118 81.2768 283.365 82.0701 282.825 83.0042C282.284 83.9383 281.972 84.9867 281.914 86.0642V116.34C281.973 117.417 282.286 118.465 282.826 119.399C283.366 120.333 284.119 121.127 285.023 121.715L287.555 123.172C288.516 123.662 289.58 123.918 290.659 123.918C291.738 123.918 292.801 123.662 293.763 123.172L352.302 89.3473C353.209 88.7606 353.963 87.9676 354.503 87.0333C355.044 86.0989 355.355 85.0498 355.412 83.9719V53.6962Z" fill="#3A4BE6"/>
<path opacity="0.5" d="M355.412 53.6962C355.355 52.6183 355.044 51.5691 354.503 50.6348C353.963 49.7004 353.209 48.9074 352.302 48.3208L349.782 46.8527C348.819 46.3705 347.756 46.1194 346.679 46.1194C345.601 46.1194 344.538 46.3705 343.575 46.8527L285.023 80.6888C284.118 81.2768 283.365 82.0701 282.825 83.0042C282.284 83.9383 281.972 84.9867 281.914 86.0642V116.34C281.973 117.417 282.286 118.465 282.826 119.399C283.366 120.333 284.119 121.127 285.023 121.715L287.555 123.172C288.516 123.662 289.58 123.918 290.659 123.918C291.738 123.918 292.801 123.662 293.763 123.172L352.302 89.3473C353.209 88.7606 353.963 87.9676 354.503 87.0333C355.044 86.0989 355.355 85.0498 355.412 83.9719V53.6962Z" fill="white"/>
<path opacity="0.2" d="M281.914 116.34C281.973 117.417 282.286 118.465 282.826 119.399C283.366 120.333 284.119 121.127 285.023 121.715L287.555 123.172C288.429 123.612 289.387 123.863 290.366 123.907C291.344 123.951 292.32 123.787 293.231 123.426C291.763 123.981 290.653 123.16 290.653 121.38V91.1043C290.69 90.0219 291.005 88.9672 291.566 88.041L282.827 83.0008C282.264 83.9264 281.95 84.9815 281.914 86.0642V116.34Z" fill="black"/>
<path opacity="0.3" d="M355.308 52.8176C354.95 51.4998 353.747 51.0721 352.314 51.9044L293.763 85.729C292.841 86.2944 292.084 87.0916 291.566 88.041L282.838 83.0008C283.355 82.0544 284.108 81.2579 285.023 80.6888L343.563 46.8642C344.524 46.374 345.588 46.1185 346.667 46.1185C347.746 46.1185 348.81 46.374 349.771 46.8642L352.314 48.3208C353.091 48.829 353.757 49.4895 354.272 50.2624C354.786 51.0353 355.139 51.9046 355.308 52.8176Z" fill="white"/>
<path d="M290.664 100.896L281.937 95.8555L271.417 105.982C271.259 106.141 271.139 106.335 271.066 106.547C270.994 106.76 270.971 106.986 270.998 107.208C271.026 107.431 271.105 107.645 271.227 107.833C271.35 108.021 271.513 108.179 271.706 108.294L280.295 113.288C280.651 113.474 281.051 113.558 281.451 113.531L290.699 111.762V100.896H290.664Z" fill="#3A4BE6"/>
<path opacity="0.5" d="M290.664 100.896L281.937 95.8555L271.417 105.982C271.259 106.141 271.139 106.335 271.066 106.547C270.994 106.76 270.971 106.986 270.998 107.208C271.026 107.431 271.105 107.645 271.227 107.833C271.35 108.021 271.513 108.179 271.706 108.294L280.295 113.288C280.651 113.474 281.051 113.558 281.451 113.531L290.699 111.762V100.896H290.664Z" fill="white"/>
<path opacity="0.3" d="M280.295 113.288L275.671 110.641L275.128 110.282L272.654 108.849L272.353 108.664L271.695 108.283C271.502 108.167 271.338 108.009 271.216 107.821C271.093 107.633 271.015 107.42 270.987 107.197C270.959 106.974 270.982 106.748 271.055 106.535C271.127 106.323 271.247 106.13 271.406 105.971L281.925 95.844L290.665 100.896L280.145 110.976C279.978 111.124 279.847 111.309 279.762 111.516C279.677 111.722 279.641 111.946 279.655 112.169C279.67 112.392 279.735 112.608 279.846 112.802C279.957 112.996 280.11 113.162 280.295 113.288Z" fill="white"/>
<path d="M307.762 91.5899C306.554 92.3755 305.549 93.4351 304.828 94.6825C304.106 95.9299 303.69 97.3299 303.612 98.7687C303.612 101.404 305.473 102.479 307.762 101.162C308.968 100.375 309.972 99.3153 310.691 98.0679C311.41 96.8204 311.824 95.4207 311.9 93.9828C311.9 91.324 310.051 90.2721 307.762 91.5899Z" fill="white"/>
<path d="M323.033 82.758C321.826 83.5443 320.823 84.6043 320.103 85.8517C319.384 87.0992 318.97 88.4989 318.894 89.9368C318.894 92.5725 320.744 93.6476 323.033 92.3182C324.237 91.5331 325.24 90.4749 325.959 89.2296C326.678 87.9842 327.093 86.5869 327.171 85.151C327.148 82.5037 325.321 81.4286 323.033 82.758Z" fill="white"/>
<path d="M338.303 73.9146C337.099 74.7029 336.097 75.7634 335.378 77.0104C334.659 78.2575 334.243 79.6561 334.165 81.0934C334.165 83.7406 336.014 84.8041 338.303 83.4863C339.513 82.6995 340.519 81.6381 341.24 80.3886C341.961 79.139 342.377 77.7367 342.453 76.296C342.453 73.6719 340.592 72.5968 338.303 73.9146Z" fill="white"/>
<path d="M468.11 113.045L463.914 105.196L467.29 95.4509V89.4512L456.955 95.4162V101.381L461.394 109.08C461.467 109.195 461.572 109.287 461.695 109.346L468.11 113.045Z" fill="#3A4BE6"/>
<path opacity="0.2" d="M468.11 113.045L463.914 105.196L467.29 95.4509V89.4512L456.955 95.4162V101.381L461.394 109.08C461.467 109.195 461.572 109.287 461.695 109.346L468.11 113.045Z" fill="black"/>
<path d="M499.496 50.6095C499.439 49.5346 499.128 48.4884 498.59 47.5563C498.051 46.6242 497.3 45.8325 496.398 45.2457L493.878 43.7891C492.919 43.299 491.857 43.0435 490.78 43.0435C489.703 43.0435 488.641 43.299 487.682 43.7891L429.269 77.5328C428.371 78.1267 427.623 78.9217 427.085 79.8547C426.548 80.7877 426.235 81.8332 426.171 82.9082V113.114C426.228 114.189 426.539 115.236 427.077 116.168C427.616 117.1 428.367 117.891 429.269 118.478L431.789 119.935C432.751 120.415 433.812 120.665 434.887 120.665C435.962 120.665 437.023 120.415 437.985 119.935L463.417 105.138L467.856 112.814C467.92 112.917 468.012 112.999 468.12 113.053C468.229 113.106 468.35 113.128 468.47 113.116C468.591 113.104 468.705 113.058 468.801 112.985C468.897 112.911 468.97 112.812 469.012 112.698L473.706 99.1846L496.34 86.1796C497.243 85.5929 497.994 84.8011 498.532 83.869C499.07 82.9369 499.381 81.8907 499.438 80.8158L499.496 50.6095Z" fill="#3A4BE6"/>
<path d="M443.673 88.7577L490.375 61.7882C491.762 60.9906 492.884 61.557 492.884 63.0598C492.821 63.8999 492.561 64.7135 492.125 65.4345C491.689 66.1555 491.09 66.7637 490.375 67.2098L443.673 94.1793C442.297 94.977 441.176 94.4105 441.176 92.9077C441.238 92.0688 441.497 91.2563 441.93 90.5355C442.364 89.8147 442.961 89.2058 443.673 88.7577Z" fill="white"/>
<path d="M443.673 100.768L490.375 73.8106C491.762 73.0129 492.884 73.5794 492.884 75.0706C492.823 75.9128 492.564 76.7286 492.128 77.4518C491.692 78.1749 491.091 78.7849 490.375 79.2322L443.673 106.19C442.297 106.999 441.176 106.421 441.176 104.93C441.236 104.089 441.494 103.274 441.928 102.551C442.362 101.829 442.959 101.218 443.673 100.768Z" fill="white"/>
<path opacity="0.2" d="M426.171 113.115C426.228 114.19 426.539 115.236 427.077 116.168C427.616 117.1 428.367 117.892 429.269 118.478L431.789 119.935C432.662 120.374 433.618 120.624 434.594 120.667C435.57 120.711 436.545 120.548 437.453 120.189C435.997 120.733 434.887 119.912 434.887 118.143V87.9369C434.924 86.8596 435.234 85.8095 435.789 84.8851L427.073 79.8449C426.518 80.7735 426.208 81.8274 426.171 82.9083V113.115Z" fill="black"/>
<path opacity="0.2" d="M499.392 49.708C499.034 48.3901 497.831 47.974 496.398 48.7947L437.985 82.5499C437.066 83.1144 436.312 83.912 435.8 84.8619L427.084 79.8333C427.603 78.8885 428.355 78.0924 429.269 77.5213L487.67 43.7661C488.634 43.2839 489.697 43.0329 490.774 43.0329C491.852 43.0329 492.914 43.2839 493.878 43.7661L496.398 45.2227C497.176 45.727 497.843 46.385 498.358 47.1563C498.873 47.9276 499.225 48.7959 499.392 49.708Z" fill="white"/>
</svg>
